<mxfile host="app.diagrams.net" modified="2021-11-17T11:39:39.116Z" agent="5.0 (Windows NT 10.0; Win64; x64) AppleWebKit/537.36 (KHTML, like Gecko) Chrome/95.0.4638.69 Safari/537.36 Edg/95.0.1020.53" etag="_-gsL9UX0Ztti6mULVuy" version="15.7.4" type="github">
  <diagram id="nHt2l7om_b5uo5CxAVpc" name="第 1 页">
    <mxGraphModel dx="1502" dy="665" grid="1" gridSize="10" guides="1" tooltips="1" connect="1" arrows="0" fold="1" page="1" pageScale="1" pageWidth="827" pageHeight="1169" math="0" shadow="0">
      <root>
        <mxCell id="0" />
        <mxCell id="1" parent="0" />
        <mxCell id="btjo654vNNgG1zoDgZcX-5" value="SYSCLK&lt;br&gt;72MHZ" style="rounded=1;whiteSpace=wrap;html=1;" vertex="1" parent="1">
          <mxGeometry x="10" y="390" width="120" height="60" as="geometry" />
        </mxCell>
        <mxCell id="btjo654vNNgG1zoDgZcX-7" value="" style="endArrow=classic;html=1;rounded=0;" edge="1" parent="1">
          <mxGeometry relative="1" as="geometry">
            <mxPoint x="130" y="419.5" as="sourcePoint" />
            <mxPoint x="230" y="419.5" as="targetPoint" />
            <Array as="points" />
          </mxGeometry>
        </mxCell>
        <mxCell id="btjo654vNNgG1zoDgZcX-9" value="AHB&lt;br&gt;预分频器" style="text;html=1;align=center;verticalAlign=middle;resizable=0;points=[];autosize=1;strokeColor=none;fillColor=none;" vertex="1" parent="1">
          <mxGeometry x="170" y="380" width="60" height="30" as="geometry" />
        </mxCell>
        <mxCell id="btjo654vNNgG1zoDgZcX-10" value="" style="strokeWidth=2;html=1;shape=mxgraph.flowchart.annotation_1;align=left;pointerEvents=1;" vertex="1" parent="1">
          <mxGeometry x="230" y="230" width="60" height="470" as="geometry" />
        </mxCell>
        <mxCell id="btjo654vNNgG1zoDgZcX-15" value="" style="endArrow=classic;html=1;rounded=0;" edge="1" parent="1">
          <mxGeometry relative="1" as="geometry">
            <mxPoint x="280" y="130" as="sourcePoint" />
            <mxPoint x="380" y="130" as="targetPoint" />
          </mxGeometry>
        </mxCell>
        <mxCell id="btjo654vNNgG1zoDgZcX-17" value="外设时钟使能" style="text;html=1;align=center;verticalAlign=middle;resizable=0;points=[];autosize=1;strokeColor=none;fillColor=none;" vertex="1" parent="1">
          <mxGeometry x="280" y="110" width="90" height="20" as="geometry" />
        </mxCell>
        <mxCell id="btjo654vNNgG1zoDgZcX-18" value="" style="strokeWidth=2;html=1;shape=mxgraph.flowchart.annotation_2;align=left;labelPosition=right;pointerEvents=1;" vertex="1" parent="1">
          <mxGeometry x="380" y="80" width="50" height="100" as="geometry" />
        </mxCell>
        <mxCell id="btjo654vNNgG1zoDgZcX-20" value="" style="endArrow=classic;html=1;rounded=0;" edge="1" parent="1">
          <mxGeometry relative="1" as="geometry">
            <mxPoint x="430" y="80" as="sourcePoint" />
            <mxPoint x="530" y="80" as="targetPoint" />
          </mxGeometry>
        </mxCell>
        <mxCell id="btjo654vNNgG1zoDgZcX-22" value="" style="endArrow=classic;html=1;rounded=0;" edge="1" parent="1">
          <mxGeometry relative="1" as="geometry">
            <mxPoint x="430" y="180" as="sourcePoint" />
            <mxPoint x="530" y="180" as="targetPoint" />
            <Array as="points">
              <mxPoint x="480" y="180" />
            </Array>
          </mxGeometry>
        </mxCell>
        <mxCell id="btjo654vNNgG1zoDgZcX-24" value="I2S2CLK" style="text;html=1;align=center;verticalAlign=middle;resizable=0;points=[];autosize=1;strokeColor=none;fillColor=none;" vertex="1" parent="1">
          <mxGeometry x="440" y="60" width="60" height="20" as="geometry" />
        </mxCell>
        <mxCell id="btjo654vNNgG1zoDgZcX-25" value="I2S3CLK" style="text;html=1;align=center;verticalAlign=middle;resizable=0;points=[];autosize=1;strokeColor=none;fillColor=none;" vertex="1" parent="1">
          <mxGeometry x="440" y="160" width="60" height="20" as="geometry" />
        </mxCell>
        <mxCell id="btjo654vNNgG1zoDgZcX-26" value="&lt;font style=&quot;line-height: 2.6 ; font-size: 18px&quot;&gt;I2S2&lt;/font&gt;" style="text;html=1;align=center;verticalAlign=middle;resizable=0;points=[];autosize=1;strokeColor=none;fillColor=none;spacingTop=1;strokeWidth=0;" vertex="1" parent="1">
          <mxGeometry x="540" y="55" width="50" height="50" as="geometry" />
        </mxCell>
        <mxCell id="btjo654vNNgG1zoDgZcX-27" value="I2S3" style="text;html=1;align=center;verticalAlign=middle;resizable=0;points=[];autosize=1;strokeColor=none;fillColor=none;fontSize=18;" vertex="1" parent="1">
          <mxGeometry x="540" y="160" width="50" height="30" as="geometry" />
        </mxCell>
        <mxCell id="btjo654vNNgG1zoDgZcX-28" value="" style="line;strokeWidth=3;direction=south;html=1;perimeter=backbonePerimeter;points=[];outlineConnect=0;fontSize=18;" vertex="1" parent="1">
          <mxGeometry x="150" y="130" width="10" height="290" as="geometry" />
        </mxCell>
        <mxCell id="btjo654vNNgG1zoDgZcX-29" value="" style="line;strokeWidth=2;html=1;fontSize=18;" vertex="1" parent="1">
          <mxGeometry x="160" y="125" width="120" height="10" as="geometry" />
        </mxCell>
        <mxCell id="btjo654vNNgG1zoDgZcX-37" value="" style="endArrow=classic;html=1;rounded=0;fontSize=18;" edge="1" parent="1">
          <mxGeometry relative="1" as="geometry">
            <mxPoint x="230" y="420" as="sourcePoint" />
            <mxPoint x="360" y="420" as="targetPoint" />
            <Array as="points">
              <mxPoint x="280" y="420" />
            </Array>
          </mxGeometry>
        </mxCell>
        <mxCell id="btjo654vNNgG1zoDgZcX-39" value="&lt;span style=&quot;font-size: 12px&quot;&gt;AHB&lt;/span&gt;&lt;br style=&quot;font-size: 12px&quot;&gt;&lt;span style=&quot;font-size: 12px&quot;&gt;预分频器&lt;/span&gt;&lt;br&gt;" style="text;html=1;align=center;verticalAlign=middle;resizable=0;points=[];autosize=1;strokeColor=none;fillColor=none;fontSize=18;" vertex="1" parent="1">
          <mxGeometry x="260" y="370" width="60" height="50" as="geometry" />
        </mxCell>
        <mxCell id="btjo654vNNgG1zoDgZcX-40" value="" style="strokeWidth=2;html=1;shape=mxgraph.flowchart.annotation_1;align=left;pointerEvents=1;fontSize=18;" vertex="1" parent="1">
          <mxGeometry x="364" y="270" width="50" height="330" as="geometry" />
        </mxCell>
        <mxCell id="btjo654vNNgG1zoDgZcX-45" value="" style="endArrow=classic;html=1;rounded=0;fontSize=18;" edge="1" parent="1">
          <mxGeometry relative="1" as="geometry">
            <mxPoint x="414" y="269" as="sourcePoint" />
            <mxPoint x="514" y="269" as="targetPoint" />
            <Array as="points">
              <mxPoint x="474" y="269" />
            </Array>
          </mxGeometry>
        </mxCell>
        <mxCell id="btjo654vNNgG1zoDgZcX-46" value="/8" style="edgeLabel;resizable=0;html=1;align=center;verticalAlign=middle;fontSize=18;strokeWidth=3;" connectable="0" vertex="1" parent="btjo654vNNgG1zoDgZcX-45">
          <mxGeometry relative="1" as="geometry" />
        </mxCell>
        <mxCell id="btjo654vNNgG1zoDgZcX-47" value="M3系统时钟" style="rounded=1;whiteSpace=wrap;html=1;fontSize=18;strokeWidth=3;" vertex="1" parent="1">
          <mxGeometry x="520" y="250" width="150" height="40" as="geometry" />
        </mxCell>
        <mxCell id="btjo654vNNgG1zoDgZcX-48" value="" style="html=1;rounded=0;fontSize=18;strokeWidth=1;" edge="1" parent="1">
          <mxGeometry width="100" relative="1" as="geometry">
            <mxPoint x="364" y="420" as="sourcePoint" />
            <mxPoint x="464" y="420" as="targetPoint" />
          </mxGeometry>
        </mxCell>
        <mxCell id="btjo654vNNgG1zoDgZcX-49" value="&lt;br&gt;&lt;br&gt;&lt;span style=&quot;color: rgb(240 , 240 , 240) ; font-family: &amp;#34;helvetica&amp;#34; ; font-style: normal ; font-weight: 400 ; letter-spacing: normal ; text-align: center ; text-indent: 0px ; text-transform: none ; word-spacing: 0px ; background-color: rgb(42 , 42 , 42) ; font-size: 12px&quot;&gt;AHB1&lt;/span&gt;&lt;br style=&quot;color: rgb(240 , 240 , 240) ; font-family: &amp;#34;helvetica&amp;#34; ; font-style: normal ; font-weight: 400 ; letter-spacing: normal ; text-align: center ; text-indent: 0px ; text-transform: none ; word-spacing: 0px ; background-color: rgb(42 , 42 , 42) ; font-size: 12px&quot;&gt;&lt;span style=&quot;color: rgb(240 , 240 , 240) ; font-family: &amp;#34;helvetica&amp;#34; ; font-style: normal ; font-weight: 400 ; letter-spacing: normal ; text-align: center ; text-indent: 0px ; text-transform: none ; word-spacing: 0px ; background-color: rgb(42 , 42 , 42) ; font-size: 12px&quot;&gt;预分频器&lt;/span&gt;&lt;br&gt;" style="text;html=1;align=center;verticalAlign=middle;resizable=0;points=[];autosize=1;strokeColor=none;fillColor=none;fontSize=18;" vertex="1" parent="1">
          <mxGeometry x="390" y="320" width="60" height="100" as="geometry" />
        </mxCell>
        <mxCell id="btjo654vNNgG1zoDgZcX-50" value="" style="endArrow=classic;html=1;rounded=0;fontSize=18;strokeWidth=1;entryX=0.164;entryY=1.027;entryDx=0;entryDy=0;entryPerimeter=0;" edge="1" parent="1" target="btjo654vNNgG1zoDgZcX-52">
          <mxGeometry relative="1" as="geometry">
            <mxPoint x="460" y="420" as="sourcePoint" />
            <mxPoint x="580" y="420" as="targetPoint" />
            <Array as="points">
              <mxPoint x="510" y="421" />
            </Array>
          </mxGeometry>
        </mxCell>
        <mxCell id="btjo654vNNgG1zoDgZcX-52" value="APB1外设" style="text;html=1;align=center;verticalAlign=middle;resizable=0;points=[];autosize=1;strokeColor=none;fillColor=none;fontSize=18;" vertex="1" parent="1">
          <mxGeometry x="710" y="390" width="100" height="30" as="geometry" />
        </mxCell>
        <mxCell id="btjo654vNNgG1zoDgZcX-56" value="max:36MHZ" style="text;html=1;align=center;verticalAlign=middle;resizable=0;points=[];autosize=1;strokeColor=none;fillColor=none;fontSize=18;" vertex="1" parent="1">
          <mxGeometry x="530" y="390" width="110" height="30" as="geometry" />
        </mxCell>
        <mxCell id="btjo654vNNgG1zoDgZcX-58" value="" style="line;strokeWidth=1;direction=south;html=1;perimeter=backbonePerimeter;points=[];outlineConnect=0;fontSize=18;fillColor=none;gradientColor=none;" vertex="1" parent="1">
          <mxGeometry x="490" y="420" width="10" height="100" as="geometry" />
        </mxCell>
        <mxCell id="btjo654vNNgG1zoDgZcX-65" value="Text" style="text;html=1;align=center;verticalAlign=middle;resizable=0;points=[];autosize=1;strokeColor=none;fillColor=none;fontSize=18;" vertex="1" parent="1">
          <mxGeometry x="460" y="450" width="40" height="20" as="geometry" />
        </mxCell>
      </root>
    </mxGraphModel>
  </diagram>
</mxfile>
